HIERARCHY
ROOT SpineBase
{
  OFFSET 0.000000 0.000000 0.000000
  CHANNELS 6 Xposition Yposition Zposition Zrotation Xrotation Yrotation
  JOINT SpineMid
  {
    OFFSET 0.000000 31.796215 0.000000
    CHANNELS 3 Zrotation Xrotation Yrotation
    JOINT SpineShoulder
    {
      OFFSET 0.121494 23.589573 -0.739597
      CHANNELS 3 Zrotation Xrotation Yrotation
      JOINT Neck
      {
        OFFSET 0.078012 7.800826 -0.564230
        CHANNELS 3 Zrotation Xrotation Yrotation
        JOINT Head
        {
          OFFSET 4.867579 12.848910 4.906215
          CHANNELS 3 Zrotation Xrotation Yrotation
          End Site
          {
            OFFSET 0 0 0
          }
        }
      }
      JOINT ShoulderLeft
      {
        OFFSET -10.396098 -3.439895 -12.024804
        CHANNELS 3 Zrotation Xrotation Yrotation
        JOINT ElbowLeft
        {
          OFFSET -7.563222 -26.451907 -6.023727
          CHANNELS 3 Zrotation Xrotation Yrotation
          JOINT WristLeft
          {
            OFFSET 1.153331 -23.381167 -3.526791
            CHANNELS 3 Zrotation Xrotation Yrotation
            JOINT HandLeft
            {
              OFFSET 0.160123 -5.099338 0.648726
              CHANNELS 3 Zrotation Xrotation Yrotation
              JOINT HandTipLeft
              {
                OFFSET 0.611679 -8.315773 0.969073
                CHANNELS 3 Zrotation Xrotation Yrotation
                End Site
                {
                  OFFSET 0 0 0
                }
              }
              JOINT ThumbLeft
              {
                OFFSET 3.750453 1.028915 -1.596114
                CHANNELS 3 Zrotation Xrotation Yrotation
                End Site
                {
                  OFFSET 0 0 0
                }
              }
            }
          }
        }
      }
      JOINT ShoulderRight
      {
        OFFSET 10.874828 -5.416498 12.382975
        CHANNELS 3 Zrotation Xrotation Yrotation
        JOINT ElbowRight
        {
          OFFSET 3.802753 -29.512193 9.747924
          CHANNELS 3 Zrotation Xrotation Yrotation
          JOINT WristRight
          {
            OFFSET 0.871906 -24.751099 4.087715
            CHANNELS 3 Zrotation Xrotation Yrotation
            JOINT HandRight
            {
              OFFSET 1.378672 -5.438544 2.196360
              CHANNELS 3 Zrotation Xrotation Yrotation
              JOINT HandTipRight
              {
                OFFSET 0.302654 -5.818530 -0.668668
                CHANNELS 3 Zrotation Xrotation Yrotation
                End Site
                {
                  OFFSET 0 0 0
                }
              }
              JOINT ThumbRight
              {
                OFFSET -1.841335 0.110014 -2.936733
                CHANNELS 3 Zrotation Xrotation Yrotation
                End Site
                {
                  OFFSET 0 0 0
                }
              }
            }
          }
        }
      }
    }
  }
  JOINT HipLeft
  {
    OFFSET -4.453896 1.584437 -8.108412
    CHANNELS 3 Zrotation Xrotation Yrotation
    JOINT KneeLeft
    {
      OFFSET -9.986131 -35.658545 -2.369177
      CHANNELS 3 Zrotation Xrotation Yrotation
      JOINT AnkleLeft
      {
        OFFSET -7.611130 -38.992791 6.287989
        CHANNELS 3 Zrotation Xrotation Yrotation
        JOINT FootLeft
        {
          OFFSET 1.789373 -7.390133 -6.740618
          CHANNELS 3 Zrotation Xrotation Yrotation
          End Site
          {
            OFFSET 0 0 0
          }
        }
      }
    }
  }
  JOINT HipRight
  {
    OFFSET 5.114802 0.222666 1.144331
    CHANNELS 3 Zrotation Xrotation Yrotation
    JOINT KneeRight
    {
      OFFSET -3.086851 -37.724256 4.137675
      CHANNELS 3 Zrotation Xrotation Yrotation
      JOINT AnkleRight
      {
        OFFSET -6.161979 -36.129126 13.256234
        CHANNELS 3 Zrotation Xrotation Yrotation
        JOINT FootRight
        {
          OFFSET 3.959364 -6.367607 -5.509626
          CHANNELS 3 Zrotation Xrotation Yrotation
          End Site
          {
            OFFSET 0 0 0
          }
        }
      }
    }
  }
}
MOTION
Frames: 10
Frame Time: 0.033333
-31.409701 84.423239 332.898383 -0.000000 0.000000 -44.038266 0.000000 0.000000 44.038266 -0.000000 0.000000 0.000000 -0.000000 0.000000 0.000000 0.000000 0.000000 0.000000 -0.000000 0.000000 0.000000 -0.000000 0.000000 0.000000 -0.000000 0.000000 0.000000 -0.000000 0.000000 0.000000 0.000000 0.000000 0.000000 0.000000 0.000000 0.000000 -0.000000 0.000000 0.000000 -0.000000 0.000000 0.000000 -0.000000 0.000000 0.000000 -0.000000 0.000000 0.000000 0.000000 0.000000 0.000000 0.000000 0.000000 0.000000 0.000000 0.000000 44.038266 -0.000000 0.000000 0.000000 -0.000000 0.000000 0.000000 0.000000 0.000000 0.000000 0.000000 0.000000 44.038266 -0.000000 0.000000 0.000000 -0.000000 0.000000 0.000000 0.000000 0.000000 0.000000
-30.896866 84.437129 333.002297 0.223975 0.176057 -43.786754 -0.039866 -0.282084 43.786312 -0.000000 0.000000 0.000000 -0.000000 0.000000 0.000000 0.000000 0.000000 0.000000 0.425172 0.725692 -0.306892 1.021541 1.111131 0.168317 2.440776 3.123193 0.716242 -1.629981 -3.061906 -0.256198 0.000000 0.000000 0.000000 0.000000 0.000000 0.000000 -0.000000 0.000000 0.000000 1.538057 0.054493 0.255117 -1.748540 1.638613 0.087931 5.075285 -0.957053 -0.744514 0.000000 0.000000 0.000000 0.000000 0.000000 0.000000 -0.039866 -0.282084 43.786312 -0.000000 0.000000 0.000000 -0.570475 -0.941267 0.290265 0.000000 0.000000 0.000000 -0.039866 -0.282084 43.786312 -0.000000 0.000000 0.000000 -1.176003 -1.082086 0.338544 0.000000 0.000000 0.000000
-30.434999 84.454723 333.118158 0.416460 0.327972 -43.576591 -0.075635 -0.524673 43.575052 -0.000000 0.000000 0.000000 -0.729318 -0.210497 0.356279 0.000000 0.000000 0.000000 0.805563 1.406073 -0.594912 1.891218 2.047207 0.321256 3.466193 4.550284 1.146626 -1.817456 -4.366622 -0.217014 0.000000 0.000000 0.000000 0.000000 0.000000 0.000000 -0.000000 0.000000 0.000000 2.711361 0.180289 0.449697 -3.485769 3.107858 0.073184 9.124245 -2.078893 -0.990209 0.000000 0.000000 0.000000 0.000000 0.000000 0.000000 -0.863254 -0.979278 43.563673 0.883943 -0.213417 0.002689 -1.081446 -1.694420 0.569107 0.000000 0.000000 0.000000 -0.825857 -1.407220 43.446200 1.151515 0.124762 0.114950 -1.936469 -1.769448 0.558807 0.000000 0.000000 0.000000
-30.024098 84.476019 333.245967 0.577390 0.455696 -43.406459 -0.106353 -0.727820 43.403488 -0.000000 0.000000 0.000000 -0.972181 -0.252112 0.463492 0.000000 0.000000 0.000000 1.140808 2.042232 -0.863053 2.609154 2.801706 0.466434 3.635936 4.909145 1.435114 -1.177305 -4.652519 0.012459 0.000000 0.000000 0.000000 0.000000 0.000000 0.000000 -0.000000 0.000000 0.000000 3.492252 0.374774 0.578398 -5.214862 4.252371 -0.085032 12.307055 -3.112697 -0.806867 0.000000 0.000000 0.000000 0.000000 0.000000 0.000000 -1.224300 -1.339702 43.374698 1.232646 -0.323090 0.012095 -1.530978 -2.251859 0.838837 0.000000 0.000000 0.000000 -1.182817 -1.949154 43.212870 0.973485 0.607391 -0.147356 -1.639963 -2.536058 0.978658 0.000000 0.000000 0.000000
-29.664165 84.501018 333.385723 0.706701 0.559181 -43.275295 -0.047870 -0.002791 43.289445 -0.025667 0.035795 0.022056 -1.779174 -0.874867 0.467744 0.000000 0.000000 0.000000 0.787223 2.009031 -1.138675 3.177225 3.371223 0.609822 3.250535 4.551455 1.621680 -0.092883 -4.350817 0.323048 0.000000 0.000000 0.000000 0.000000 0.000000 0.000000 -0.644696 -0.625298 -0.043876 3.861537 0.635108 0.638768 -6.890606 4.928253 -0.415418 14.719620 -3.862030 -0.301715 0.000000 0.000000 0.000000 0.000000 0.000000 0.000000 -1.537766 -1.616871 43.219258 1.521327 -0.434770 0.026551 -1.917709 -2.608064 1.101366 0.000000 0.000000 0.000000 -1.499908 -2.385839 43.022742 1.205116 0.726236 -0.183337 -1.448822 -2.577476 1.087127 0.000000 0.000000 0.000000
-29.355199 84.529721 333.537425 0.804324 0.638378 -43.182285 -0.043000 0.002434 43.198262 -0.022297 0.035249 0.026185 -1.968614 -0.908469 0.471036 0.000000 0.000000 0.000000 0.923316 2.480657 -1.367597 3.598342 3.754319 0.755683 2.464239 3.663148 1.710579 1.208907 -3.705940 0.636925 0.000000 0.000000 0.000000 0.000000 0.000000 0.000000 -0.752906 -0.704198 -0.052016 3.808389 0.958523 0.631223 -8.414769 5.043074 -0.924812 16.358446 -4.225281 0.406999 0.000000 0.000000 0.000000 0.000000 0.000000 0.000000 -1.803559 -1.812591 43.098209 1.751432 -0.548507 0.045829 -2.240839 -2.759474 1.358099 0.000000 0.000000 0.000000 -1.775780 -2.718975 42.876799 1.389897 0.804797 -0.213710 -0.911262 -2.232875 1.101321 0.000000 0.000000 0.000000
-29.102510 84.572039 333.721382 0.900400 0.663777 -43.172271 -0.019100 0.010096 43.191346 -0.010991 0.024223 0.032022 -2.187429 -0.749485 0.433565 0.000000 0.000000 0.000000 0.975544 3.133466 -1.618514 4.169832 3.919397 0.914994 0.861336 2.935108 1.661815 3.935387 -3.085362 1.267578 0.000000 0.000000 0.000000 0.000000 0.000000 0.000000 -0.883078 -0.707553 -0.062218 2.973704 1.887916 0.509647 -10.396905 3.467911 -2.249389 17.691112 -2.847419 1.701747 0.000000 0.000000 0.000000 0.000000 0.000000 0.000000 -2.054534 -1.919196 43.056415 1.911684 -0.666184 0.071015 -2.484651 -2.538273 1.638489 0.000000 0.000000 0.000000 -2.040426 -2.922437 42.823469 1.480007 0.881745 -0.256865 -0.746773 -2.951252 0.785428 0.000000 0.000000 0.000000
-28.904551 84.629042 333.907372 0.913405 0.696348 -43.251610 -0.002464 0.030518 43.271518 0.005098 0.019208 0.034795 -1.937799 -0.722337 0.295463 0.000000 0.000000 0.000000 1.078009 3.649880 -1.825384 4.431044 3.922364 1.084348 -1.023045 1.566310 1.454407 4.820387 -3.048353 1.381890 0.000000 0.000000 0.000000 0.000000 0.000000 0.000000 -0.938394 -0.738484 -0.066501 1.484557 2.493455 0.301679 -8.860736 1.517439 -2.478686 16.452228 -3.750878 1.825146 0.000000 0.000000 0.000000 0.000000 0.000000 0.000000 -2.195580 -1.951267 43.107157 1.209047 -0.727064 -0.054735 -1.816775 -2.273118 1.998955 0.000000 0.000000 0.000000 -2.209090 -3.014986 42.867901 1.555628 0.878653 -0.278988 -4.135984 -7.851882 0.564566 0.000000 0.000000 0.000000
-28.751211 84.665005 334.087402 0.881178 0.729908 -43.204260 0.020490 0.049780 43.224074 0.022713 0.009864 0.036106 -0.953724 -0.761017 -0.067669 0.000000 0.000000 0.000000 1.182444 3.977088 -1.961412 4.243008 3.692593 1.247736 -2.975857 -0.883858 1.057708 6.248791 -2.142162 1.438452 0.000000 0.000000 0.000000 0.000000 0.000000 0.000000 -0.953724 -0.761017 -0.067669 0.607826 2.256774 0.168439 -9.849658 1.885795 -3.024263 14.581567 -3.236023 2.824991 0.000000 0.000000 0.000000 0.000000 0.000000 0.000000 -2.254624 -1.899464 43.030506 1.196055 -0.712831 -0.058698 -1.950734 -1.855190 2.336612 0.000000 0.000000 0.000000 -2.340848 -3.064625 42.788952 1.663697 0.807132 -0.275203 -3.623230 -7.611681 0.372436 0.000000 0.000000 0.000000
-28.619738 84.703522 334.263919 0.855211 0.744537 -43.267505 0.037317 0.048027 43.287073 0.031579 -0.002837 0.036420 -0.947689 -0.750097 -0.067212 0.000000 0.000000 0.000000 1.235372 4.203734 -2.038299 3.873248 3.335697 1.382962 -4.254689 -5.746763 0.623861 5.957447 3.057630 0.922792 0.000000 0.000000 0.000000 0.000000 0.000000 0.000000 -0.947689 -0.750097 -0.067212 -0.721757 2.093541 -0.032361 -9.248106 1.766618 -3.139811 11.055819 -3.237236 3.411391 0.000000 0.000000 0.000000 0.000000 0.000000 0.000000 -2.358010 -1.838650 43.058830 1.206215 -0.711742 -0.058489 -1.956203 -1.122112 2.633400 0.000000 0.000000 0.000000 -2.448126 -3.050655 42.829147 1.712795 0.660653 -0.265560 -0.560230 -3.656235 0.454656 0.000000 0.000000 0.000000
